<?xml version="1.0" encoding="UTF-8"?>
<svg id="Layer_1" data-name="Layer 1" xmlns="http://www.w3.org/2000/svg" viewBox="0 0 985.23 362.32">
  <defs>
    <style>
      .cls-1, .cls-2 {
        fill: #f4d136;
      }

      .cls-2 {
        font-family: BritannicBold, 'Britannic Bold';
        font-size: 104px;
      }

      .cls-3 {
        fill: none;
      }

      .cls-4 {
        fill: #fee99e;
      }
    </style>
  </defs>
  <g>
    <polygon class="cls-4" points="527.72 119.56 527.72 176.16 524.58 178.43 524.58 205.07 524.58 205.07 524.58 156.76 520.79 159.03 519.64 159.72 519.22 159.96 514.68 162.68 514.19 162.98 514.19 107.14 527.72 119.56"/>
    <path class="cls-4" d="M510.4,109.4l-1.57,.94-4.55,2.72-1.57,.94-4.55,2.72-1.57,.94-2.92,1.75-.28,.17v81.51l1.72-1.25v-5.82l1.47-.88v5.63l1.57-1.14v-5.43l4.55-2.72v4.84l.31-.23v-9.56l.76,.26v-15.59l.2-.12,.28-.17v-5.18l4.55-2.72v5.18l1.57-.94v-5.18l2.07-1.24v5.18l.64-.39,1.08-.64v-55.84l-3.79,2.27Zm-12.22,9.33l4.55-2.72v9.6l-3.64,2.18-.91,.54v-9.6Zm0,11.42l1.76-1.05,2.79-1.67v10.58l-2.15,1.29-2.39,1.43v-10.58Zm-3.04-9.6l1.47-.88v9.6l-1.47,.88v-9.6Zm1.47,70.76l-1.47,.88v-10.58l1.47-.88v10.58Zm0-12.41l-1.47,.88v-10.58l1.47-.88v10.58Zm0-12.41l-1.47,.88v-10.58l1.47-.88v10.58Zm0-12.41l-1.47,.88v-10.58l1.47-.88v10.58Zm0-12.41l-1.47,.88v-10.58l1.47-.88v10.58Zm6.11,45.98l-4.55,2.72v-10.58l4.55-2.72v10.58Zm0-12.41l-4.55,2.72v-10.58l4.55-2.72v10.58Zm0-12.41l-4.55,2.72v-10.58l4.55-2.72v10.58Zm0-12.41l-4.55,2.72v-10.58l3.6-2.15,.95-.57v10.58Zm6.11,8.75l-4.55,2.72v-10.58l4.55-2.72v10.58Zm0-12.41l-4.55,2.72v-10.58l1.41-.84,3.14-1.88v10.58Zm0-12.41l-3.99,2.39-.56,.33v-10.58l4.55-2.72v10.58Zm0-12.41l-4.55,2.72v-9.6l4.55-2.72v9.59Zm3.63,35.05l-2.07,1.24v-10.58l1.06-.64,1-.6v10.58Zm0-12.41l-1.85,1.11-.22,.13v-10.58l2.07-1.24v10.58Zm0-12.41l-2.07,1.24v-10.58l2.07-1.24v10.58Zm0-12.41l-2.07,1.24v-9.59l2.07-1.24v9.59Z"/>
  </g>
  <g>
    <polygon class="cls-1" points="504 142.45 504 184.85 503.8 184.78 503.04 184.52 503.04 194.08 502.72 194.31 498.17 197.62 496.61 198.75 495.14 199.82 493.41 201.07 493.41 201.89 492.57 201.69 490.48 201.19 490.48 130.03 493.41 132.72 495.14 134.31 496.61 135.66 498.17 137.1 500.57 139.3 501.77 140.4 502.72 141.28 504 142.45"/>
    <path class="cls-1" d="M486.69,132.29l-1.57,.94-4.55,2.72-1.57,.94-4.55,2.72-1.57,.94-3.2,1.91v53.8l1.72,.41v-4.59l1.47-.88v5.82l1.57,.37v-7.13l4.55-2.72v10.58l-.41,.24,2.19,.52,4.34-2.6v3.62l1.57,.37v-4.93l2.07-1.24v6.66l1.72,.41v-71.16l-3.79,2.27Zm-13.79,57.08l-1.47,.88v-10.58l1.47-.88v10.58Zm0-12.41l-1.47,.88v-10.58l1.47-.88v10.58Zm0-12.41l-1.47,.88v-10.58l1.47-.88v10.58Zm0-12.41l-1.47,.88v-9.6l1.47-.88v9.6Zm6.11,33.57l-4.55,2.72v-10.58l4.55-2.72v10.58Zm0-12.41l-4.55,2.72v-10.58l4.55-2.72v10.58Zm0-12.41l-4.55,2.72v-10.58l4.55-2.72v10.58Zm0-12.41l-4.55,2.72v-9.6l4.55-2.72v9.6Zm6.11,45.98l-4.55,2.72v-10.58l4.55-2.72v10.58Zm0-12.41l-4.55,2.72v-10.58l4.55-2.72v10.58Zm0-12.41l-4.55,2.72v-10.58l4.55-2.72v10.58Zm0-12.41l-4.55,2.72v-10.58l4.55-2.72v10.58Zm0-12.41l-4.55,2.72v-9.6l4.55-2.72v9.59Zm3.63,47.46l-2.07,1.24v-10.58l2.07-1.24v10.58Zm0-12.41l-2.07,1.24v-10.58l2.07-1.24v10.58Zm0-12.41l-2.07,1.24v-10.58l2.07-1.24v10.58Zm0-12.41l-2.07,1.24v-10.58l2.07-1.24v10.58Zm0-12.41l-2.07,1.24v-9.59l2.07-1.24v9.59Z"/>
  </g>
  <g>
    <polygon class="cls-1" points="538.1 169.19 538.1 188.41 529.42 174.92 527.72 176.16 524.58 178.43 524.58 156.76 527.72 159.64 537.75 168.87 538.1 169.19"/>
    <path class="cls-1" d="M520.79,159.03l-1.15,.69-.42,.25-4.55,2.72-.49,.29-1.08,.64-.64,.39-2.07,1.24-1.57,.94-.27,.16-1.57,.94-2.71,1.62-.28,.17-.2,.12v15.59l.2,.07,1.52,.51v-3.78l1.47-.88v5.15l1.57,.53v-6.61l4.55-2.72v9.71l1.57-1.14v-9.51l4.55-2.72v8.93l1.57-1.14v-8.73l2.07-1.24v8.47l1.72-1.26v-21.67l-3.79,2.27Zm-13.79,19.86l-1.47,.88v-9.6l1.47-.88v9.6Zm6.11-3.66l-4.55,2.72v-9.6l4.55-2.72v9.6Zm6.11-3.66l-4.55,2.72v-9.6l4.55-2.72v9.59Zm3.63-2.17l-2.07,1.24v-9.59l2.07-1.24v9.59Z"/>
  </g>
  <line class="cls-3" x1="511.67" y1="206.22" x2="510.04" y2="205.83"/>
  <polygon class="cls-1" points="489.7 245.63 466.78 245.63 465.3 243.29 431.76 190.46 532.42 214.37 489.7 245.63"/>
  <line class="cls-3" x1="545.83" y1="204.31" x2="543.35" y2="206.2"/>
  <polygon class="cls-1" points="569.22 190.46 496.65 245.63 532.93 245.63 569.22 190.46"/>
  <polygon class="cls-4" points="545.83 204.31 529.36 178.73 528.42 177.26 526.58 180.13 510.04 205.83 511.67 206.22 527.51 181.6 543.35 206.2 545.83 204.31"/>
  <polygon class="cls-1" points="510.78 190.33 508.79 195.15 508.79 191.85 508.79 191.85 508.79 189.91 505.71 188.33 505.71 194.19 495.07 202.28 508.37 205.44 525.81 178.91 510.78 190.33"/>
  <rect class="cls-1" x="420.19" y="230.63" width="6.9" height="6.9"/>
  <rect class="cls-1" x="428.2" y="230.63" width="6.9" height="6.9"/>
  <rect class="cls-1" x="420.19" y="238.64" width="6.9" height="6.9"/>
  <rect class="cls-1" x="428.2" y="238.64" width="6.9" height="6.9"/>
  <rect class="cls-1" x="523.85" y="197.87" width="3.77" height="3.77"/>
  <rect class="cls-1" x="528.24" y="197.87" width="3.77" height="3.77"/>
  <rect class="cls-1" x="523.85" y="202.25" width="3.77" height="3.77"/>
  <rect class="cls-1" x="528.24" y="202.25" width="3.77" height="3.77"/>
  <line class="cls-3" x1="524.58" y1="220.11" x2="524.58" y2="220.11"/>
  <polyline class="cls-3" points="535.75 211.93 538.1 210.21 578.31 180.79"/>
  <rect class="cls-1" x="566.38" y="230.08" width="6.9" height="6.9"/>
  <rect class="cls-1" x="574.39" y="230.08" width="6.9" height="6.9"/>
  <rect class="cls-1" x="566.38" y="238.09" width="6.9" height="6.9"/>
  <rect class="cls-1" x="574.39" y="238.09" width="6.9" height="6.9"/>
  <polygon class="cls-4" points="430.39 192.61 427.13 187.55 425.47 190.13 392.65 241.11 370.28 245.63 396.27 245.63 428.73 195.2 461.18 245.63 464.51 245.63 430.39 192.61"/>
  <text/>
  <g>
    <text class="cls-2" transform="translate(5.97 86.68)"><tspan x="0" y="0">Technova Real Estate</tspan></text>
    <text class="cls-2" transform="translate(5.97 86.68)"><tspan x="0" y="0">Technova Real Estate</tspan></text>
  </g>
  <g>
    <text class="cls-2" transform="translate(95.04 336.32)"><tspan x="0" y="0">And Construction</tspan></text>
    <text class="cls-2" transform="translate(95.04 336.32)"><tspan x="0" y="0">And Construction</tspan></text>
  </g>
</svg>