<?xml version="1.0" encoding="UTF-8"?>
<svg id="Layer_1" data-name="Layer 1" xmlns="http://www.w3.org/2000/svg" viewBox="0 0 416.97 431.98">
  <defs>
    <style>
      .cls-1 {
        letter-spacing: -.02em;
      }

      .cls-2, .cls-3 {
        fill: #f4d136;
      }

      .cls-4 {
        fill: none;
      }

      .cls-5 {
        fill: #fee99e;
      }

      .cls-3 {
        font-family: SakkalMajalla, 'Sakkal Majalla';
        font-size: 168px;
      }
    </style>
  </defs>
  <g>
    <polygon class="cls-5" points="252.39 19.92 252.39 110.65 247.36 114.3 247.36 157 247.36 157 247.36 79.56 241.28 83.19 239.44 84.29 238.77 84.69 231.48 89.05 230.71 89.52 230.71 0 252.39 19.92"/>
    <path class="cls-5" d="M224.63,3.63l-2.51,1.5-7.29,4.36-2.51,1.5-7.29,4.36-2.51,1.5-4.68,2.8-.45,.27V150.6l2.77-2.01v-9.32l2.36-1.41v9.02l2.51-1.82v-8.7l7.29-4.36v7.76l.5-.37v-15.33l1.22,.41v-24.99l.33-.2,.46-.27v-8.31l7.29-4.36v8.31l2.51-1.5v-8.31l3.31-1.98v8.31l1.03-.62,1.73-1.03V0l-6.08,3.63Zm-19.6,14.95l7.29-4.36v15.38l-5.83,3.49-1.46,.87v-15.38Zm0,18.3l2.82-1.69,4.48-2.67v16.97l-3.45,2.07-3.84,2.29v-16.97Zm-4.87-15.39l2.36-1.41v15.38l-2.36,1.41v-15.38Zm2.36,113.43l-2.36,1.41v-16.97l2.36-1.41v16.97Zm0-19.89l-2.36,1.41v-16.97l2.36-1.41v16.97Zm0-19.89l-2.36,1.41v-16.97l2.36-1.41v16.97Zm0-19.89l-2.36,1.41v-16.97l2.36-1.41v16.97Zm0-19.89l-2.36,1.41v-16.97l2.36-1.41v16.97Zm9.8,73.71l-7.29,4.36v-16.97l7.29-4.36v16.97Zm0-19.89l-7.29,4.36v-16.97l7.29-4.36v16.97Zm0-19.89l-7.29,4.36v-16.97l7.29-4.36v16.97Zm0-19.89l-7.29,4.36v-16.97l5.77-3.45,1.53-.91v16.97Zm9.8,14.03l-7.29,4.36v-16.97l7.29-4.36v16.97Zm0-19.89l-7.29,4.36v-16.97l2.26-1.35,5.03-3.01v16.97Zm0-19.89l-6.39,3.82-.9,.54V31.03l7.29-4.36v16.97Zm0-19.89l-7.29,4.36V12.72l7.29-4.36v15.38Zm5.82,56.19l-3.31,1.98v-16.97l1.71-1.02,1.61-.96v16.97Zm0-19.89l-2.97,1.78-.35,.21v-16.97l3.31-1.98v16.97Zm0-19.89l-3.31,1.98V25.16l3.31-1.98v16.97Zm0-19.89l-3.31,1.98V6.87l3.31-1.98v15.38Z"/>
  </g>
  <g>
    <polygon class="cls-2" points="214.38 56.62 214.38 124.58 214.05 124.47 212.82 124.06 212.82 139.39 212.32 139.76 205.03 145.05 202.52 146.87 200.16 148.59 197.4 150.6 197.4 151.9 196.05 151.57 192.69 150.78 192.69 36.7 197.4 41.02 200.16 43.56 202.52 45.73 205.03 48.03 208.87 51.56 210.8 53.33 212.32 54.73 214.38 56.62"/>
    <path class="cls-2" d="M186.62,40.33l-2.51,1.5-7.29,4.36-2.51,1.5-7.29,4.36-2.51,1.5-5.12,3.07v86.25l2.77,.66v-7.36l2.36-1.41v9.32l2.51,.6v-11.42l7.29-4.36v16.97l-.66,.39,3.5,.83,6.95-4.16v5.81l2.51,.6v-7.9l3.31-1.98v10.67l2.77,.66V36.7l-6.08,3.63Zm-22.11,91.51l-2.36,1.41v-16.97l2.36-1.41v16.97Zm0-19.89l-2.36,1.41v-16.97l2.36-1.41v16.97Zm0-19.89l-2.36,1.41v-16.97l2.36-1.41v16.97Zm0-19.89l-2.36,1.41v-15.38l2.36-1.41v15.38Zm9.8,53.82l-7.29,4.36v-16.97l7.29-4.36v16.97Zm0-19.89l-7.29,4.36v-16.97l7.29-4.36v16.97Zm0-19.89l-7.29,4.36v-16.97l7.29-4.36v16.97Zm0-19.89l-7.29,4.36v-15.38l7.29-4.36v15.38Zm9.8,73.7l-7.29,4.36v-16.97l7.29-4.36v16.97Zm0-19.89l-7.29,4.36v-16.97l7.29-4.36v16.97Zm0-19.89l-7.29,4.36v-16.97l7.29-4.36v16.97Zm0-19.89l-7.29,4.36v-16.97l7.29-4.36v16.97Zm0-19.89l-7.29,4.36v-15.38l7.29-4.36v15.38Zm5.82,76.08l-3.31,1.98v-16.97l3.31-1.98v16.97Zm0-19.89l-3.31,1.98v-16.97l3.31-1.98v16.97Zm0-19.89l-3.31,1.98v-16.97l3.31-1.98v16.97Zm0-19.89l-3.31,1.98v-16.97l3.31-1.98v16.97Zm0-19.89l-3.31,1.98v-15.38l3.31-1.98v15.38Z"/>
  </g>
  <g>
    <polygon class="cls-2" points="269.04 99.49 269.04 130.3 255.12 108.66 252.39 110.65 247.36 114.3 247.36 79.56 252.39 84.18 268.47 98.96 269.04 99.49"/>
    <path class="cls-2" d="M241.28,83.19l-1.84,1.1-.67,.4-7.29,4.36-.78,.47-1.73,1.03-1.03,.62-3.31,1.98-2.51,1.5-.44,.26-2.51,1.5-4.34,2.6-.46,.27-.33,.2v24.99l.33,.11,2.44,.82v-6.05l2.36-1.41v8.26l2.51,.85v-10.6l7.29-4.36v15.57l2.51-1.82v-15.25l7.29-4.36v14.32l2.51-1.82v-14l3.31-1.98v13.58l2.77-2.01v-34.74l-6.08,3.63Zm-22.11,31.83l-2.36,1.41v-15.38l2.36-1.41v15.38Zm9.8-5.86l-7.29,4.36v-15.38l7.29-4.36v15.38Zm9.8-5.86l-7.29,4.36v-15.38l7.29-4.36v15.38Zm5.82-3.48l-3.31,1.98v-15.38l3.31-1.98v15.38Z"/>
  </g>
  <line class="cls-4" x1="226.67" y1="158.85" x2="224.05" y2="158.22"/>
  <polygon class="cls-2" points="191.45 222.02 154.71 222.02 152.33 218.28 98.56 133.58 259.93 171.91 191.45 222.02"/>
  <line class="cls-4" x1="281.43" y1="155.78" x2="277.45" y2="158.81"/>
  <polygon class="cls-2" points="318.92 133.58 202.59 222.02 260.75 222.02 318.92 133.58"/>
  <polygon class="cls-5" points="281.43 155.78 255.03 114.77 253.52 112.42 250.56 117.03 224.05 158.22 226.67 158.85 252.07 119.37 277.45 158.81 281.43 155.78"/>
  <polygon class="cls-2" points="225.24 133.38 222.04 141.1 222.04 135.81 222.04 135.81 222.04 132.69 217.11 130.17 217.11 139.56 200.06 152.53 221.37 157.59 249.33 115.07 225.24 133.38"/>
  <rect class="cls-2" x="80.01" y="197.98" width="11.06" height="11.06"/>
  <rect class="cls-2" x="92.86" y="197.98" width="11.06" height="11.06"/>
  <rect class="cls-2" x="80.01" y="210.82" width="11.06" height="11.06"/>
  <rect class="cls-2" x="92.86" y="210.82" width="11.06" height="11.06"/>
  <rect class="cls-2" x="246.2" y="145.46" width="6.05" height="6.05"/>
  <rect class="cls-2" x="253.22" y="145.46" width="6.05" height="6.05"/>
  <rect class="cls-2" x="246.2" y="152.48" width="6.05" height="6.05"/>
  <rect class="cls-2" x="253.22" y="152.48" width="6.05" height="6.05"/>
  <line class="cls-4" x1="247.36" y1="181.1" x2="247.36" y2="181.11"/>
  <polyline class="cls-4" points="265.26 168.01 269.04 165.24 333.5 118.07"/>
  <rect class="cls-2" x="314.37" y="197.09" width="11.06" height="11.06"/>
  <rect class="cls-2" x="327.21" y="197.09" width="11.06" height="11.06"/>
  <rect class="cls-2" x="314.37" y="209.93" width="11.06" height="11.06"/>
  <rect class="cls-2" x="327.21" y="209.93" width="11.06" height="11.06"/>
  <polygon class="cls-5" points="96.36 137.03 91.13 128.91 88.47 133.05 35.87 214.78 0 222.02 41.66 222.02 93.7 141.17 145.73 222.02 151.06 222.02 96.36 137.03"/>
  <text class="cls-3" transform="translate(23.02 355.04)"><tspan x="0" y="0">TRE</tspan><tspan class="cls-1" x="201.55" y="0">A</tspan><tspan x="274.15" y="0">C</tspan></text>
  <polygon class="cls-5" points="380.49 213.61 328.61 133 325.98 128.91 320.81 136.94 266.72 220.98 271.99 220.98 323.44 141.03 374.89 220.98 375.77 220.98 416.97 220.98 380.49 213.61"/>
</svg>