<?xml version="1.0" encoding="UTF-8"?>
<svg id="Layer_1" data-name="Layer 1" xmlns="http://www.w3.org/2000/svg" viewBox="0 0 942.84 355.07">
  <defs>
    <style>
      .cls-1, .cls-2 {
        fill: #f4d136;
      }

      .cls-3 {
        fill: none;
      }

      .cls-2 {
        font-family: BritannicBold, 'Britannic Bold';
        font-size: 85px;
      }

      .cls-4 {
        fill: #fee99e;
      }
    </style>
  </defs>
  <g>
    <polygon class="cls-4" points="517.04 23.04 517.04 121.01 511.62 124.96 511.62 171.07 511.61 171.07 511.61 87.44 505.05 91.36 503.06 92.55 502.34 92.98 494.47 97.69 493.63 98.19 493.63 1.53 517.04 23.04"/>
    <path class="cls-4" d="M487.07,5.45l-2.71,1.62-7.87,4.71-2.71,1.62-7.87,4.71-2.71,1.62-5.05,3.02-.48,.29V164.15l2.99-2.17v-10.07l2.55-1.52v9.74l2.71-1.97v-9.39l7.87-4.71v8.38l.54-.4v-16.55l1.32,.44v-26.99l.35-.21,.49-.29v-8.97l7.87-4.71v8.97l2.71-1.62v-8.97l3.58-2.14v8.97l1.12-.67,1.87-1.12V1.52l-6.56,3.92Zm-21.16,16.15l7.87-4.71v16.61l-6.3,3.77-1.58,.94V21.59Zm0,19.77l3.04-1.82,4.83-2.89v18.32l-3.73,2.23-4.15,2.48v-18.32Zm-5.26-16.62l2.55-1.52v16.61l-2.55,1.52V24.74Zm2.55,122.49l-2.55,1.52v-18.32l2.55-1.52v18.32Zm0-21.48l-2.55,1.52v-18.32l2.55-1.52v18.32Zm0-21.48l-2.55,1.52v-18.32l2.55-1.52v18.32Zm0-21.48l-2.55,1.52v-18.32l2.55-1.52v18.32Zm0-21.48l-2.55,1.52v-18.32l2.55-1.52v18.32Zm10.58,79.6l-7.87,4.71v-18.32l7.87-4.71v18.32Zm0-21.48l-7.87,4.71v-18.32l7.87-4.71v18.32Zm0-21.48l-7.87,4.71v-18.32l7.87-4.71v18.32Zm0-21.48l-7.87,4.71v-18.32l6.23-3.72,1.65-.99v18.32Zm10.58,15.15l-7.87,4.71v-18.32l7.87-4.71v18.32Zm0-21.48l-7.87,4.71v-18.32l2.44-1.46,5.43-3.25v18.32Zm0-21.48l-6.9,4.13-.97,.58v-18.32l7.87-4.71v18.32Zm0-21.48l-7.87,4.71V15.26l7.87-4.7V27.16Zm6.29,60.68l-3.58,2.14v-18.32l1.84-1.1,1.73-1.04v18.32Zm0-21.48l-3.2,1.92-.37,.22v-18.32l3.58-2.14v18.32Zm0-21.48l-3.58,2.14V28.7l3.58-2.14v18.32Zm0-21.48l-3.58,2.14V8.94l3.58-2.14V23.4Z"/>
  </g>
  <g>
    <polygon class="cls-1" points="476 62.67 476 136.06 475.64 135.94 474.32 135.5 474.32 152.05 473.78 152.44 465.9 158.16 463.19 160.13 460.65 161.98 457.66 164.15 457.66 165.56 456.2 165.21 452.58 164.35 452.58 41.15 457.66 45.82 460.65 48.56 463.19 50.9 465.9 53.4 470.05 57.21 472.13 59.12 473.78 60.63 476 62.67"/>
    <path class="cls-1" d="M446.02,45.08l-2.71,1.62-7.87,4.71-2.71,1.62-7.87,4.71-2.71,1.62-5.53,3.31v93.14l2.99,.71v-7.95l2.55-1.52v10.07l2.71,.64v-12.34l7.87-4.71v18.32l-.71,.42,3.78,.9,7.51-4.49v6.27l2.71,.64v-8.54l3.58-2.14v11.53l2.99,.71V41.15l-6.56,3.92Zm-23.87,98.82l-2.55,1.52v-18.32l2.55-1.52v18.32Zm0-21.48l-2.55,1.52v-18.32l2.55-1.52v18.32Zm0-21.48l-2.55,1.52v-18.32l2.55-1.52v18.32Zm0-21.48l-2.55,1.52v-16.61l2.55-1.52v16.61Zm10.58,58.11l-7.87,4.71v-18.32l7.87-4.71v18.32Zm0-21.48l-7.87,4.71v-18.32l7.87-4.71v18.32Zm0-21.48l-7.87,4.71v-18.32l7.87-4.71v18.32Zm0-21.48l-7.87,4.71v-16.61l7.87-4.71v16.61Zm10.58,79.59l-7.87,4.71v-18.32l7.87-4.71v18.32Zm0-21.48l-7.87,4.71v-18.32l7.87-4.71v18.32Zm0-21.48l-7.87,4.71v-18.32l7.87-4.71v18.32Zm0-21.48l-7.87,4.71v-18.32l7.87-4.71v18.32Zm0-21.48l-7.87,4.71v-16.61l7.87-4.7v16.61Zm6.29,82.16l-3.58,2.14v-18.32l3.58-2.14v18.32Zm0-21.48l-3.58,2.14v-18.32l3.58-2.14v18.32Zm0-21.48l-3.58,2.14v-18.32l3.58-2.14v18.32Zm0-21.48l-3.58,2.14v-18.32l3.58-2.14v18.32Zm0-21.48l-3.58,2.14v-16.61l3.58-2.14v16.61Z"/>
  </g>
  <g>
    <polygon class="cls-1" points="535.03 108.96 535.03 142.23 520 118.87 517.04 121.01 511.62 124.96 511.62 87.44 517.04 92.43 534.41 108.39 535.03 108.96"/>
    <path class="cls-1" d="M505.05,91.36l-1.99,1.19-.72,.43-7.87,4.71-.84,.5-1.87,1.12-1.12,.67-3.58,2.14-2.71,1.62-.47,.28-2.71,1.62-4.69,2.81-.49,.29-.35,.21v26.99l.35,.12,2.63,.89v-6.54l2.55-1.52v8.92l2.71,.92v-11.45l7.87-4.71v16.82l2.71-1.97v-16.47l7.87-4.71v15.46l2.71-1.97v-15.12l3.58-2.14v14.66l2.99-2.17v-37.52l-6.56,3.92Zm-23.87,34.38l-2.55,1.52v-16.61l2.55-1.52v16.61Zm10.58-6.33l-7.87,4.71v-16.61l7.87-4.71v16.61Zm10.58-6.33l-7.87,4.71v-16.61l7.87-4.7v16.61Zm6.29-3.76l-3.58,2.14v-16.61l3.58-2.14v16.61Z"/>
  </g>
  <line class="cls-3" x1="489.27" y1="173.06" x2="486.44" y2="172.39"/>
  <polygon class="cls-1" points="451.24 241.28 411.56 241.28 408.99 237.24 350.92 145.77 525.19 187.17 451.24 241.28"/>
  <line class="cls-3" x1="548.4" y1="169.75" x2="544.1" y2="173.02"/>
  <polygon class="cls-1" points="588.89 145.77 463.26 241.28 526.08 241.28 588.89 145.77"/>
  <polygon class="cls-4" points="548.4 169.75 519.9 125.46 518.27 122.92 515.07 127.9 486.44 172.39 489.27 173.06 516.7 130.44 544.1 173.02 548.4 169.75"/>
  <polygon class="cls-1" points="487.73 145.56 484.28 153.9 484.28 148.19 484.27 148.19 484.27 144.82 478.95 142.09 478.95 152.24 460.53 166.24 483.54 171.7 513.74 125.79 487.73 145.56"/>
  <rect class="cls-1" x="330.9" y="215.32" width="11.95" height="11.95"/>
  <rect class="cls-1" x="344.77" y="215.32" width="11.95" height="11.95"/>
  <rect class="cls-1" x="330.9" y="229.19" width="11.95" height="11.95"/>
  <rect class="cls-1" x="344.77" y="229.19" width="11.95" height="11.95"/>
  <rect class="cls-1" x="510.36" y="158.61" width="6.53" height="6.53"/>
  <rect class="cls-1" x="517.95" y="158.61" width="6.53" height="6.53"/>
  <rect class="cls-1" x="510.36" y="166.19" width="6.53" height="6.53"/>
  <rect class="cls-1" x="517.95" y="166.19" width="6.53" height="6.53"/>
  <line class="cls-3" x1="511.62" y1="197.1" x2="511.61" y2="197.1"/>
  <polyline class="cls-3" points="530.95 182.95 535.03 179.97 604.64 129.03"/>
  <rect class="cls-1" x="583.97" y="214.36" width="11.95" height="11.95"/>
  <rect class="cls-1" x="597.84" y="214.36" width="11.95" height="11.95"/>
  <rect class="cls-1" x="583.97" y="228.23" width="11.95" height="11.95"/>
  <rect class="cls-1" x="597.84" y="228.23" width="11.95" height="11.95"/>
  <polygon class="cls-4" points="348.55 149.5 342.9 140.73 340.03 145.2 283.22 233.46 244.49 241.28 289.49 241.28 345.67 153.97 401.86 241.28 407.62 241.28 348.55 149.5"/>
  <g>
    <text class="cls-2" transform="translate(274.9 333.82)"><tspan x="0" y="0">KRIDAREK</tspan></text>
    <text class="cls-2" transform="translate(274.9 333.82)"><tspan x="0" y="0">KRIDAREK</tspan></text>
  </g>
  <text/>
  <text/>
  <polygon class="cls-4" points="591.72 152.02 597.36 143.25 600.24 147.72 657.04 235.98 695.77 243.8 650.78 243.8 594.59 156.49 538.4 243.8 532.65 243.8 591.72 152.02"/>
</svg>